<svg width="1506" height="1506" viewBox="0 0 1506 1506" fill="none" xmlns="http://www.w3.org/2000/svg">
<path d="M753.001 0C958.329 0.000249041 1128.29 151.422 1157.31 348.688C1354.58 377.709 1506 547.671 1506 753C1506 958.328 1354.58 1128.29 1157.31 1157.31C1128.29 1354.58 958.329 1506 753 1506C547.671 1506 377.709 1354.58 348.689 1157.31C151.422 1128.29 0.000225179 958.329 0 753C0 547.671 151.422 377.709 348.689 348.688C377.71 151.421 547.672 -8.97519e-06 753.001 0ZM638.16 366.794V452.185L523.114 452.187V551.23H574.2V950.845H523.114V1049.89L638.16 1049.89V1141.25H716.423V1049.89H760.559V1141.25H839.537V1048.96C850.502 1048.45 861.516 1047.67 870.384 1046.47C918.045 1038.51 956.063 1019.15 984.433 988.412C1013.37 957.104 1027.84 918.963 1027.84 873.993C1027.84 838.701 1016.77 807.393 994.646 780.069C972.517 752.746 944.998 734.815 912.089 726.276C935.92 717.169 956.062 701.228 972.517 678.459C988.971 655.12 997.199 629.787 997.199 602.464C997.199 564.894 985.567 533.301 962.304 507.686C939.608 481.501 908.967 464.422 870.384 456.453C861.716 454.923 850.64 453.934 839.537 453.296V366.794H760.559V452.185H716.423V366.794H638.16ZM814.212 781.775C842.581 781.775 865.844 789.745 884.001 805.684C902.725 821.053 912.089 840.979 912.089 865.456C912.089 890.502 902.725 910.996 884.001 926.935C865.844 942.873 842.581 950.843 814.212 950.843H689.95V781.775H814.212ZM805.701 551.232C828.964 551.233 847.973 557.78 862.726 570.872C878.045 583.395 885.704 599.618 885.704 619.541C885.704 640.034 878.045 656.827 862.726 669.92C847.973 682.443 828.964 688.704 805.701 688.704H689.95V551.232H805.701Z" fill="#F29FCD"/>
</svg>