<svg width="28" height="28" viewBox="0 0 28 28" fill="none" xmlns="http://www.w3.org/2000/svg">
<path d="M6.41599 20.1249C4.70841 20.1249 3.26069 19.5311 2.07281 18.3434C0.884946 17.1558 0.291016 15.7083 0.291016 14.001C0.291016 12.2937 0.884946 10.8459 2.07281 9.65752C3.26069 8.46918 4.70841 7.875 6.41599 7.875C7.0959 7.875 7.74825 7.99578 8.37304 8.23734C8.99781 8.4789 9.56147 8.82179 10.064 9.26602L12.2942 11.2314L10.9705 12.4025L8.89294 10.5673C8.5519 10.2741 8.16824 10.0438 7.74196 9.87624C7.31568 9.70871 6.87342 9.62494 6.41517 9.62494C5.20705 9.62494 4.17599 10.0522 3.32199 10.9067C2.46799 11.7613 2.04099 12.7929 2.04099 14.0018C2.04099 15.2106 2.46799 16.2417 3.32199 17.095C4.17599 17.9483 5.20705 18.375 6.41517 18.375C6.87342 18.375 7.31568 18.2912 7.74196 18.1237C8.16824 17.9562 8.5519 17.7258 8.89294 17.4327L17.9346 9.26602C18.4297 8.8143 18.9908 8.46953 19.618 8.23171C20.2452 7.9939 20.9001 7.875 21.5827 7.875C23.2902 7.875 24.738 8.46883 25.9258 9.6565C27.1137 10.8442 27.7076 12.2917 27.7076 13.999C27.7076 15.7063 27.1137 17.1541 25.9258 18.3424C24.738 19.5308 23.2902 20.1249 21.5827 20.1249C20.9006 20.1249 20.2496 20.0023 19.6296 19.757C19.0096 19.5117 18.4446 19.1707 17.9346 18.7339L15.7269 16.7685L17.0281 15.5862L19.1057 17.4327C19.4467 17.7348 19.8304 17.9674 20.2567 18.1304C20.683 18.2935 21.1252 18.375 21.5835 18.375C22.7916 18.375 23.8227 17.9477 24.6767 17.0932C25.5307 16.2387 25.9577 15.207 25.9577 13.9982C25.9577 12.7893 25.5307 11.7582 24.6767 10.9049C23.8227 10.0516 22.7916 9.62494 21.5835 9.62494C21.1252 9.62494 20.683 9.70871 20.2567 9.87624C19.8304 10.0438 19.4467 10.2741 19.1057 10.5673L10.064 18.7339C9.56896 19.1856 9.00782 19.5304 8.38062 19.7682C7.7534 20.006 7.09852 20.1249 6.41599 20.1249Z" fill="#554B6A"/>
</svg>
